<?xml version="1.0" ?><!DOCTYPE svg  PUBLIC '-//W3C//DTD SVG 1.1//EN'  'http://www.w3.org/Graphics/SVG/1.1/DTD/svg11.dtd'><svg height="512px" style="enable-background:new 0 0 512 512;" version="1.1" viewBox="0 0 512 512" width="512px" xml:space="preserve" xmlns="http://www.w3.org/2000/svg" xmlns:xlink="http://www.w3.org/1999/xlink"><g id="_x33_1_x2C__Google_Vault"><g><path d="M419.5,83.5c-15.206,0-298.131,0-312,0c-7.73,0-14,6.27-14,14v21h-10c-7.73,0-14,6.27-14,14v82    c0,7.73,6.27,14,14,14h10v50h-10c-7.73,0-14,6.27-14,14v77c0,7.73,6.27,14,14,14h10v26c0,7.73,6.27,14,14,14h312    c7.73,0,14-6.27,14-14v-312C433.5,89.77,427.23,83.5,419.5,83.5z" style="fill:#9BC9FF;"/><path d="M458.5,33.5c11.051,0,20,8.95,20,20s-8.949,20-20,20c-11.039,0-20-8.95-20-20    S447.461,33.5,458.5,33.5z" style="fill:#FFFFFF;"/><path d="M63.5,428.5c13.81,0,25,11.19,25,25s-11.19,25-25,25c-13.81,0-25-11.19-25-25    S49.69,428.5,63.5,428.5z" style="fill:#FFFFFF;"/><path d="M398.5,226v60c0,6.9-5.6,12.5-12.5,12.5s-12.5-5.6-12.5-12.5v-60c0-6.9,5.6-12.5,12.5-12.5    c3.45,0,6.57,1.4,8.84,3.66C397.1,219.42,398.5,222.55,398.5,226z" style="fill:#FFFFFF;"/><path d="M268.83,213.5c22.09,0,40,17.91,40,40s-17.91,40-40,40c-22.1,0-40-17.91-40-40    S246.73,213.5,268.83,213.5z M283.83,253.5c0-8.28-6.72-15-15-15c-8.29,0-15,6.72-15,15c0,8.28,6.71,15,15,15    C277.11,268.5,283.83,261.78,283.83,253.5z" style="fill:#FFFFFF;"/><path d="M348.381,173.95c6.83,6.83,6.83,17.92,0,24.75l-22.92,22.91c5.319,9.43,8.369,20.3,8.369,31.89    s-3.05,22.46-8.369,31.89l22.92,22.91c6.83,6.83,6.83,17.92,0,24.75c-6.841,6.83-17.92,6.83-24.75,0l-22.92-22.91    c-9.421,5.311-20.291,8.36-31.881,8.36s-22.47-3.05-31.89-8.36l-22.91,22.91c-6.84,6.83-17.92,6.83-24.75,0    c-6.84-6.83-6.84-17.92,0-24.75l22.91-22.91c-5.32-9.43-8.36-20.3-8.36-31.89s3.04-22.46,8.36-31.89l-22.91-22.91    c-3.42-3.42-5.13-7.9-5.13-12.38s1.71-8.96,5.13-12.37c6.83-6.83,17.91-6.83,24.75,0l22.91,22.91c9.42-5.31,20.3-8.36,31.89-8.36    s22.46,3.05,31.881,8.36l22.92-22.91c3.42-3.41,7.889-5.12,12.369-5.12S344.961,170.54,348.381,173.95z M308.83,253.5    c0-22.09-17.91-40-40-40c-22.1,0-40,17.91-40,40s17.9,40,40,40C290.92,293.5,308.83,275.59,308.83,253.5z" style="fill:#FFFFFF;"/><circle cx="466" cy="271" r="7.5" style="fill:#1E81CE;"/><circle cx="401" cy="461" r="7.5" style="fill:#1E81CE;"/><circle cx="351" cy="61" r="7.5" style="fill:#1E81CE;"/><circle cx="196" cy="451" r="7.5" style="fill:#1E81CE;"/><circle cx="161" cy="38.5" r="7.5" style="fill:#1E81CE;"/><circle cx="36" cy="241" r="7.5" style="fill:#1E81CE;"/><path d="M336.002,343.173c-6.01,0-11.659-2.34-15.907-6.588l-20.313-20.304    c-9.595,4.732-20.218,7.219-30.952,7.219c-10.74,0-21.365-2.486-30.961-7.218l-20.303,20.303    c-4.255,4.249-9.906,6.588-15.914,6.588c-6.01,0-11.659-2.34-15.907-6.588c-4.251-4.245-6.594-9.896-6.594-15.91    s2.343-11.665,6.597-15.913l20.3-20.3c-4.731-9.59-7.217-20.216-7.217-30.962c0-10.746,2.486-21.372,7.217-30.962l-20.303-20.302    c-4.252-4.253-6.594-9.905-6.594-15.916c0-6.017,2.344-11.667,6.6-15.911c4.243-4.242,9.892-6.582,15.902-6.582    c6.008,0,11.659,2.338,15.912,6.584l20.306,20.306c9.596-4.732,20.222-7.218,30.961-7.218c10.733,0,21.356,2.486,30.952,7.218    l20.313-20.304c4.26-4.248,9.906-6.584,15.904-6.584c6.006,0,11.656,2.336,15.91,6.58c4.254,4.252,6.593,9.903,6.593,15.916    c0,6.012-2.339,11.663-6.587,15.911l-20.313,20.303c4.738,9.599,7.227,20.225,7.227,30.961c0,10.737-2.488,21.362-7.227,30.961    l20.312,20.303c8.774,8.773,8.774,23.049,0.001,31.821C347.66,340.834,342.01,343.173,336.002,343.173z M300.709,305.14    c1.294,0,2.574,0.502,3.536,1.464l22.92,22.91c2.36,2.359,5.497,3.659,8.837,3.659s6.481-1.301,8.846-3.661    c4.871-4.871,4.871-12.803-0.003-17.677l-22.919-22.909c-1.588-1.587-1.924-4.038-0.82-5.993    c5.054-8.957,7.725-19.135,7.725-29.433s-2.671-20.476-7.725-29.434c-1.104-1.955-0.768-4.406,0.82-5.993l22.92-22.91    c2.357-2.358,3.657-5.498,3.657-8.839s-1.3-6.48-3.657-8.839c-2.363-2.355-5.506-3.656-8.846-3.656c-3.332,0-6.472,1.3-8.84,3.661    l-22.915,22.905c-1.587,1.586-4.037,1.921-5.989,0.819c-8.955-5.047-19.131-7.715-29.426-7.715    c-10.302,0-20.48,2.668-29.435,7.715c-1.955,1.102-4.403,0.766-5.991-0.82l-22.91-22.91c-2.361-2.358-5.503-3.658-8.843-3.658    c-3.339,0-6.477,1.299-8.836,3.658c-2.366,2.358-3.666,5.494-3.666,8.834c0,3.34,1.302,6.481,3.666,8.845l22.91,22.909    c1.587,1.587,1.922,4.038,0.819,5.993c-5.047,8.946-7.715,19.124-7.715,29.433c0,10.31,2.668,20.487,7.715,29.433    c1.103,1.955,0.768,4.405-0.819,5.992l-22.91,22.91c-2.365,2.361-3.666,5.5-3.666,8.84s1.301,6.479,3.663,8.837    c2.361,2.361,5.499,3.661,8.838,3.661c3.34,0,6.481-1.301,8.845-3.661l22.908-22.907c1.587-1.587,4.037-1.923,5.991-0.82    c8.954,5.048,19.131,7.716,29.434,7.716c10.296,0,20.471-2.668,29.425-7.716C299.023,305.351,299.869,305.14,300.709,305.14z" style="fill:#1E81CE;"/><path d="M268.83,298.5c-24.813,0-45-20.187-45-45c0-24.813,20.187-45,45-45c24.813,0,45,20.187,45,45    C313.83,278.313,293.643,298.5,268.83,298.5z M268.83,218.5c-19.299,0-35,15.701-35,35s15.701,35,35,35s35-15.701,35-35    S288.129,218.5,268.83,218.5z" style="fill:#1E81CE;"/><path d="M268.83,273.5c-11.027,0-20-8.972-20-20c0-11.028,8.973-20,20-20s20,8.972,20,20    C288.83,264.528,279.857,273.5,268.83,273.5z M268.83,243.5c-5.514,0-10,4.486-10,10c0,5.514,4.486,10,10,10s10-4.486,10-10    C278.83,247.986,274.344,243.5,268.83,243.5z" style="fill:#1E81CE;"/><path d="M419.5,428.5h-312c-10.477,0-19-8.523-19-19v-21h-5c-10.477,0-19-8.523-19-19v-77    c0-10.477,8.523-19,19-19h5v-40h-5c-10.477,0-19-8.523-19-19v-82c0-10.477,8.523-19,19-19h5v-16c0-10.477,8.523-19,19-19h312    c10.477,0,19,8.523,19,19v312C438.5,419.977,429.977,428.5,419.5,428.5z M83.5,283.5c-4.962,0-9,4.037-9,9v77c0,4.963,4.038,9,9,9    h10c2.761,0,5,2.238,5,5v26c0,4.963,4.038,9,9,9h312c4.963,0,9-4.037,9-9v-312c0-4.962-4.037-9-9-9h-312c-4.962,0-9,4.038-9,9v21    c0,2.761-2.239,5-5,5h-10c-4.962,0-9,4.038-9,9v82c0,4.962,4.038,9,9,9h10c2.761,0,5,2.239,5,5v50c0,2.762-2.239,5-5,5H83.5z" style="fill:#1E81CE;"/><path d="M386,303.5c-9.649,0-17.5-7.851-17.5-17.5v-60c0-9.649,7.851-17.5,17.5-17.5    c4.662,0,9.055,1.817,12.368,5.117c3.312,3.312,5.132,7.707,5.132,12.383v60C403.5,295.649,395.649,303.5,386,303.5z M386,218.5    c-4.136,0-7.5,3.364-7.5,7.5v60c0,4.136,3.364,7.5,7.5,7.5s7.5-3.364,7.5-7.5v-60c0-2.005-0.779-3.889-2.195-5.304    C389.885,219.283,387.999,218.5,386,218.5z" style="fill:#1E81CE;"/><path d="M138.5,233.5c-2.761,0-5-2.239-5-5v-145c0-2.761,2.239-5,5-5s5,2.239,5,5v145    C143.5,231.261,141.261,233.5,138.5,233.5z" style="fill:#1E81CE;"/><path d="M158.5,298.5c-2.761,0-5-2.238-5-5v-75c0-2.761,2.239-5,5-5s5,2.239,5,5v75    C163.5,296.262,161.261,298.5,158.5,298.5z" style="fill:#1E81CE;"/><path d="M63.5,483.5c-16.542,0-30-13.458-30-30s13.458-30,30-30s30,13.458,30,30S80.042,483.5,63.5,483.5z     M63.5,433.5c-11.028,0-20,8.972-20,20s8.972,20,20,20s20-8.972,20-20S74.528,433.5,63.5,433.5z" style="fill:#1E81CE;"/><path d="M458.5,78.5c-13.785,0-25-11.215-25-25s11.215-25,25-25s25,11.215,25,25S472.285,78.5,458.5,78.5z     M458.5,38.5c-8.271,0-15,6.729-15,15s6.729,15,15,15s15-6.729,15-15S466.771,38.5,458.5,38.5z" style="fill:#1E81CE;"/></g></g><g id="Layer_1"/></svg>